#!OML:ASF H:\Terrain\Patient Classification 1\Takeo\Monday\TakeoMonday.ASF
:FULLY-SPECIFIED
:DEGREES
2181
root 9.39908 17.6082 -3.04862 349.337 -18.2652 -353.507
lowerback -1.30159 0.771452 0.6262
upperback 0.820795 1.01862 -0.148697
thorax 1.58349 0.516497 -0.475974
lowerneck -11.1648 6.01269 1.3941
upperneck 2.53183 8.07807 -4.60656
head 3.05101 3.84131 -1.24642
rclavicle -3.27995e-014 -7.95139e-015
rhumerus -6.31861 46.5075 -105.142
rradius 55.19
rwrist -21.07
rhand -43.4865 19.3624
rfingers 7.12502
rthumb -16.3268 -9.97035
lclavicle -3.27995e-014 -7.95139e-015
lhumerus 5.7669 -17.0568 93.7305
lradius 70.5909
lwrist 35.5877
lhand -42.3433 34.6795
lfingers 7.12502
lthumb -15.2259 424.099
rfemur 15.3757 -2.57324 15.6357
rtibia 14.4711
rfoot -20.4327 -23.2717
rtoes -1.95342
lfemur -3.59174 -4.35766 -21.2364
ltibia 13.5503
lfoot 1.64052 14.0014
ltoes -7.55179
2182
root 9.39987 17.6089 -3.05122 349.273 -18.3567 -353.49
lowerback -1.3132 0.761436 0.701931
upperback 0.913907 1.00491 -0.243293
thorax 1.68834 0.511671 -0.614646
lowerneck -11.1808 6.19842 1.87418
upperneck 2.39552 8.26928 -4.8562
head 3.05284 3.93362 -1.39926
rclavicle -3.11098e-014 6.36111e-015
rhumerus -6.31043 46.4067 -105.254
rradius 55.2363
rwrist -21.0452
rhand -43.2308 19.746
rfingers 7.12502
rthumb -16.0806 -9.60679
lclavicle -3.11098e-014 6.36111e-015
lhumerus 5.73431 -16.995 93.7014
lradius 70.7104
lwrist 35.3987
lhand -42.1656 35.0214
lfingers 7.12502
lthumb -15.0547 424.454
rfemur 15.5033 -2.57516 15.5948
rtibia 14.2634
rfoot -19.9165 -23.4113
rtoes -2.06178
lfemur -3.67541 -4.44543 -21.2478
ltibia 13.8692
lfoot 1.49739 14.1288
ltoes -7.95508
2183
root 9.401 17.6216 -3.05967 349.586 -18.5488 -354.124
lowerback -1.31916 0.724855 1.22822
upperback 0.84448 0.941868 -0.00608946
thorax 1.62418 0.484122 -0.668774
lowerneck -11.0257 6.27316 2.01408
upperneck 2.30837 8.36085 -5.06411
head 3.01648 3.97631 -1.49083
rclavicle -3.90612e-014 1.59028e-015
rhumerus -6.49153 46.6136 -105.301
rradius 55.2394
rwrist -21.1944
rhand -43.1779 19.8414
rfingers 7.12502
rthumb -16.0297 -9.51546
lclavicle -3.90612e-014 1.59028e-015
lhumerus 5.55951 -16.7361 93.8858
lradius 70.8214
lwrist 35.1839
lhand -41.9159 35.0251
lfingers 7.12502
lthumb -14.8141 424.476
rfemur 15.3381 -2.44311 16.3529
rtibia 14.1631
rfoot -19.8518 -23.625
rtoes -1.59472
lfemur -3.89844 -4.50203 -20.5121
ltibia 14.0087
lfoot 1.21427 14.3325
ltoes -7.07886
2184
root 9.40335 17.6289 -3.06981 349.952 -18.7251 -354.93
lowerback -1.31088 0.682313 1.94002
upperback 0.80293 0.867097 0.260135
thorax 1.58226 0.452302 -0.797248
lowerneck -11.0771 6.17653 1.80754
upperneck 2.44792 8.25708 -4.91981
head 3.05107 3.9253 -1.41176
rclavicle -3.4191e-014 1.11319e-014
rhumerus -6.51604 46.7473 -105.237
rradius 55.2658
rwrist -21.4047
rhand -43.1234 19.6122
rfingers 7.12502
rthumb -15.9772 -9.74894
lclavicle -3.4191e-014 1.11319e-014
lhumerus 5.4519 -16.4862 94.0208
lradius 70.8842
lwrist 34.9446
lhand -41.7874 34.7868
lfingers 7.12502
lthumb -14.6903 424.246
rfemur 15.1396 -2.26129 17.3252
rtibia 14.1149
rfoot -20.0288 -23.89
rtoes -1.4491
lfemur -4.1036 -4.30216 -19.6217
ltibia 14.0856
lfoot 1.20403 14.2313
ltoes -7.32494
2185
root 9.40736 17.6215 -3.06973 349.67 -18.7081 -354.477
lowerback -1.17951 0.715811 1.56755
upperback 0.86648 0.923084 0.133701
thorax 1.57121 0.477368 -0.717874
lowerneck -11.0545 6.0533 1.69563
upperneck 2.53691 8.11074 -4.89016
head 3.06484 3.85183 -1.39229
rclavicle -2.00773e-014 4.77083e-015
rhumerus -6.42621 46.5844 -105.059
rradius 55.3631
rwrist -21.5271
rhand -42.7792 19.1086
rfingers 7.12502
rthumb -15.6458 -10.2787
lclavicle -2.00773e-014 4.77083e-015
lhumerus 5.36111 -16.5291 94.1518
lradius 70.9426
lwrist 34.8524
lhand -42.0059 34.6647
lfingers 7.12502
lthumb -14.9008 424.109
rfemur 15.4517 -2.21764 16.8077
rtibia 13.7991
rfoot -19.8147 -23.8254
rtoes -1.95079
lfemur -4.09569 -4.20577 -20.1546
ltibia 14.4421
lfoot 1.10475 14.1314
ltoes -9.87219
2186
root 9.41053 17.6079 -3.07724 349.51 -18.6294 -354.155
lowerback -1.02712 0.758529 1.29385
upperback 0.837063 0.989076 0.0487247
thorax 1.45382 0.507097 -0.652363
lowerneck -10.718 5.96485 1.70906
upperneck 2.40817 7.99972 -5.07745
head 2.96437 3.79734 -1.47407
rclavicle -2.28602e-015 -9.54166e-015
rhumerus -6.41306 46.5651 -104.873
rradius 55.4775
rwrist -21.5856
rhand -42.4374 17.911
rfingers 7.12502
rthumb -15.3165 -11.5018
lclavicle -2.28602e-015 -9.54166e-015
lhumerus 5.17577 -16.6138 94.3649
lradius 71.0101
lwrist 34.7811
lhand -42.1934 34.5071
lfingers 7.12502
lthumb -15.0814 423.938
rfemur 15.69 -2.17784 16.4721
rtibia 13.4791
rfoot -19.6564 -23.7472
rtoes -2.25881
lfemur -4.24388 -4.40249 -20.5111
ltibia 14.8054
lfoot 1.00593 14.2205
ltoes -11.0379
2187
root 9.41022 17.6122 -3.09669 350.011 -18.649 -355.109
lowerback -0.982863 0.683234 2.12543
upperback 0.719593 0.873852 0.297588
thorax 1.31524 0.454343 -0.867421
lowerneck -10.5113 5.9694 1.85458
upperneck 2.33132 7.99554 -5.24721
head 2.91615 3.79528 -1.56168
rclavicle -5.66536e-015 1.27222e-014
rhumerus -6.4604 46.6988 -104.881
rradius 55.6082
rwrist -21.6168
rhand -42.1892 16.9173
rfingers 7.12502
rthumb -15.0774 -12.5136
lclavicle -5.66536e-015 1.27222e-014
lhumerus 5.06388 -16.4502 94.4194
lradius 71.0817
lwrist 34.6748
lhand -42.107 34.0533
lfingers 7.12502
lthumb -14.9982 423.49
rfemur 15.3958 -2.06661 17.6419
rtibia 13.4956
rfoot -19.6422 -24.0931
rtoes -2.11253
lfemur -4.63693 -4.63045 -19.4053
ltibia 14.8315
lfoot 1.05443 14.2576
ltoes -8.75552
2188
root 9.4139 17.6193 -3.10461 350.243 -18.7169 -355.526
lowerback -0.975876 0.581893 2.50631
upperback 0.712325 0.731933 0.377282
thorax 1.30352 0.386217 -1.00232
lowerneck -10.5344 6.04298 2.05747
upperneck 2.43378 8.07783 -5.32937
head 2.97426 3.83355 -1.61706
rclavicle -1.49089e-015 4.77083e-015
rhumerus -6.60623 46.5203 -105.177
rradius 55.7017
rwrist -21.2714
rhand -41.904 16.6652
rfingers 7.12502
rthumb -14.8027 -12.7861
lclavicle -1.49089e-015 4.77083e-015
lhumerus 5.13398 -16.3006 94.1622
lradius 71.1176
lwrist 34.8103
lhand -41.9916 33.964
lfingers 7.12502
lthumb -14.8871 423.409
rfemur 15.2273 -2.03282 18.1134
rtibia 13.5268
rfoot -19.3699 -24.2695
rtoes -2.30979
lfemur -4.82395 -4.70147 -18.911
ltibia 14.8606
lfoot 0.860989 14.3642
ltoes -6.7062
2189
root 9.42268 17.6138 -3.09951 349.836 -18.6987 -354.747
lowerback -0.863833 0.546791 1.87505
upperback 0.820767 0.699745 0.111461
thorax 1.34592 0.367009 -0.922242
lowerneck -10.7952 6.12 1.96839
upperneck 2.90664 8.19678 -5.06748
head 3.17163 3.89041 -1.4954
rclavicle -4.69132e-014 1.43125e-014
rhumerus -6.79377 46.0984 -105.514
rradius 55.6242
rwrist -20.6701
rhand -41.7821 17.2438
rfingers 7.12502
rthumb -14.6853 -12.2161
lclavicle -4.69132e-014 1.43125e-014
lhumerus 5.25894 -16.3418 93.8504
lradius 71.0693
lwrist 35.0509
lhand -41.9685 34.1742
lfingers 7.12502
lthumb -14.8648 423.621
rfemur 15.4797 -2.08822 17.1567
rtibia 13.4402
rfoot -19.3742 -24.0326
rtoes -2.28773
lfemur -4.61068 -4.68208 -19.8155
ltibia 14.9195
lfoot 0.762156 14.5129
ltoes -7.59692
2190
root 9.42708 17.6083 -3.0982 349.501 -18.6607 -354.108
lowerback -0.744072 0.535318 1.29849
upperback 0.891917 0.696801 -0.0844433
thorax 1.34674 0.361435 -0.800696
lowerneck -11.2613 6.19617 1.61538
upperneck 3.61576 8.3357 -4.47959
head 3.45981 3.96082 -1.20923
rclavicle -1.96797e-014 1.82882e-014
rhumerus -6.81925 46.0498 -105.577
rradius 55.4463
rwrist -20.3313
rhand -42.0031 18.1928
rfingers 7.12502
rthumb -14.8982 -11.2515
lclavicle -1.96797e-014 1.82882e-014
lhumerus 5.32607 -16.3541 93.6991
lradius 71.0043
lwrist 35.1873
lhand -42.0091 33.9452
lfingers 7.12502
lthumb -14.9039 423.389
rfemur 15.5452 -2.09144 16.4089
rtibia 13.6376
rfoot -19.8938 -23.7914
rtoes -1.38185
lfemur -4.33057 -4.66379 -20.5608
ltibia 14.7255
lfoot 1.1524 14.5382
ltoes -9.4977
2191
root 9.42601 17.6098 -3.1018 349.438 -18.7213 -353.979
lowerback -0.656914 0.551144 1.13234
upperback 0.877179 0.721587 -0.100461
thorax 1.28139 0.37185 -0.724524
lowerneck -11.3647 6.18608 1.34158
upperneck 3.88344 8.34485 -4.10509
head 3.53767 3.97195 -1.03138
rclavicle 6.55989e-015 -8.74653e-015
rhumerus -6.80674 46.178 -105.483
rradius 55.466
rwrist -20.317
rhand -42.0647 17.9777
rfingers 7.12502
rthumb -14.9575 -11.4621
lclavicle 6.55989e-015 -8.74653e-015
lhumerus 5.23174 -16.4183 93.6944
lradius 71.0891
lwrist 35.2727
lhand -42.4977 33.4699
lfingers 7.12502
lthumb -15.3746 422.878
rfemur 15.3457 -2.1023 16.2657
rtibia 14.0384
rfoot -19.9849 -23.7242
rtoes -1.19868
lfemur -4.11244 -4.62086 -20.6823
ltibia 14.3335
lfoot 1.51462 14.5336
ltoes -9.58067
2192
root 9.42674 17.6124 -3.10375 349.517 -18.7592 -354.037
lowerback -0.634624 0.566623 1.17214
upperback 0.828112 0.741972 -0.0699516
thorax 1.21916 0.381694 -0.71578
lowerneck -11.179 6.16931 1.39886
upperneck 3.78705 8.31615 -4.16739
head 3.4737 3.96019 -1.07073
rclavicle 3.27995e-015 -1.59028e-015
rhumerus -6.89561 46.0251 -105.438
rradius 55.6006
rwrist -20.2625
rhand -41.9158 17.3467
rfingers 7.12502
rthumb -14.814 -12.1038
lclavicle 3.27995e-015 -1.59028e-015
lhumerus 5.05626 -16.4953 93.7959
lradius 71.2572
lwrist 35.2841
lhand -42.7433 33.3443
lfingers 7.12502
lthumb -15.6111 422.734
rfemur 15.111 -2.15878 16.3114
rtibia 14.3416
rfoot -19.6897 -23.7502
rtoes -1.94129
lfemur -4.04584 -4.46891 -20.5948
ltibia 14.0267
lfoot 1.61017 14.4395
ltoes -8.75729
